# xmcd CD database file
#
# Track frame offsets:
#	150
#	12195
#	24413
#	44004
#	58624
#	75382
#	88183
#	104564
#	121103
#	134330
#
# Disc length: 1966 seconds
#
# Revision: 0
# Processed by: cddbd v1.5.2PL0 Copyright (c) Steve Scherf et al.
# Submitted via: CDex 1.50
#
DISCID=7b07ac0a
DTITLE=La Mississippi - Palacio de pulgas
DYEAR=1999
DGENRE=Blues
TTITLE0=Ahora vengo
TTITLE1=El fierro
TTITLE2=Ella
TTITLE3=Canción del pescador
TTITLE4=Ojos de piedra
TTITLE5=Bueno, bueno, bueno
TTITLE6=Mono
TTITLE7=No preguntes
TTITLE8=Busco una canción
TTITLE9=Abrime negra
EXTD=YEAR: 1999
EXTT0=
EXTT1=
EXTT2=
EXTT3=
EXTT4=
EXTT5=
EXTT6=
EXTT7=
EXTT8=
EXTT9=
PLAYORDER=
